<svg width="25" height="25" viewBox="0 0 25 25" fill="none" xmlns="http://www.w3.org/2000/svg">
<g clip-path="url(#clip0_65897_2)">
<path d="M1.00646 12.0807C1.03044 18.1672 5.99426 23.092 12.0807 23.068C18.1672 23.0441 23.092 18.0802 23.0681 11.9938C23.0441 5.90732 18.0802 0.982468 11.9938 1.00645C5.90732 1.03044 0.982473 5.99426 1.00646 12.0807ZM1.96566 12.0769C1.94372 6.50887 6.4295 1.9876 11.9976 1.96565C17.5656 1.94371 22.0869 6.42949 22.1089 11.9976C22.1308 17.5656 17.645 22.0869 12.0769 22.1088C6.50887 22.1308 1.9876 17.645 1.96566 12.0769ZM8.69895 16.8455L8.70751 18.7808C8.70751 18.7808 8.70171 18.8916 8.71972 19.0252C8.73773 19.1589 8.74662 19.3565 8.97661 19.5582L8.97755 19.5591L8.97849 19.56C9.18529 19.7394 9.42514 19.7316 9.55704 19.7086C9.68846 19.6856 9.78646 19.635 9.78718 19.6346L9.78812 19.6346C9.8337 19.6158 13.2711 18.1971 15.1139 16.4184C16.4146 15.1638 16.8404 13.8258 16.8357 12.6356L16.8333 12.0184C16.8325 11.8153 16.8225 11.6339 16.7176 11.4333C16.6127 11.2328 16.3247 11.0611 16.1016 11.062C15.8613 11.063 15.6282 11.058 15.4983 11.0279C15.3769 10.9997 15.4067 11.0107 15.4063 10.9992C15.4088 10.9877 15.4136 10.9667 15.4313 10.927C15.4697 10.8413 15.5555 10.7087 15.6688 10.5616C15.8949 10.2679 16.2233 9.91983 16.4769 9.52992C16.8438 8.97143 16.8189 8.36702 16.8189 8.36702L16.811 6.37368L16.8091 6.35215C16.8091 6.35215 16.8009 6.04631 16.6071 5.73283C16.5102 5.57609 16.3328 5.39006 16.0678 5.32841C15.8028 5.26676 15.5253 5.3479 15.2816 5.50293C15.1923 5.55956 14.7974 5.83434 13.8334 6.92872C13.5847 7.21146 13.4086 7.40429 13.3148 7.48063C13.2815 7.50773 13.2847 7.50998 13.2831 7.51541C13.2667 7.50912 13.1337 7.44664 12.914 7.27894C12.685 7.10416 12.3659 6.83845 11.9274 6.49691C11.3683 6.06159 10.8311 5.75673 10.3781 5.56534C10.1516 5.46965 9.94614 5.40199 9.75998 5.3617C9.57382 5.32141 9.41909 5.28928 9.19883 5.35079C9.03487 5.39668 8.88835 5.52011 8.81123 5.64084C8.73411 5.76156 8.70532 5.87395 8.68703 5.9748C8.65043 6.1765 8.65761 6.3543 8.65826 6.52009C8.65963 6.86723 8.67789 8.41036 8.67839 8.53774C8.67898 8.68723 8.74218 8.92547 8.80587 9.03558C8.96386 9.30894 9.17917 9.39381 9.17917 9.39381L9.22517 9.41986L9.27675 9.43464C9.27675 9.43464 10.4149 9.78156 11.0022 10.1407L11.0022 10.1416C11.6941 10.5639 11.9691 10.8799 12.0473 11.019C12.0556 11.0338 12.0512 11.0256 12.0567 11.0358C12.025 11.0468 11.9813 11.0608 11.9004 11.0701C11.7181 11.0913 11.4613 11.0803 11.2129 11.0813C10.525 11.084 10.0958 11.034 9.68983 11.0929C9.48685 11.1223 9.26097 11.1962 9.08764 11.3632C8.9143 11.5302 8.8295 11.7454 8.78087 11.9602L8.78087 11.9611C8.73026 12.1849 8.68698 12.426 8.68382 13.005C8.67985 13.7426 8.70461 14.2229 8.89638 14.6491L8.89921 14.6537L8.90109 14.6575C8.98098 14.8258 9.07232 14.9584 9.19406 15.075C9.25494 15.1333 9.29937 15.2026 9.49263 15.25C9.58927 15.2736 9.77192 15.2756 9.91945 15.1659C10.067 15.0562 10.111 14.9031 10.1223 14.8128C10.1202 14.8295 10.1391 14.7418 10.1723 14.674C10.2055 14.6062 10.2535 14.5472 10.2729 14.5322L10.2739 14.5322C10.2657 14.5385 10.427 14.4728 10.5742 14.4551C10.7214 14.4374 10.8402 14.44 10.8402 14.44L10.8693 14.4408L10.8983 14.4379C10.8983 14.4379 11.224 14.4072 11.5605 14.4212C11.7287 14.4283 11.8981 14.4489 12.0019 14.4766C12.0074 14.4781 12.0055 14.4788 12.0103 14.4804C11.927 14.6008 11.6358 14.8788 11.0074 15.2627C10.426 15.6176 9.37925 15.952 9.37925 15.952L9.35586 15.9596L9.33341 15.9681C9.33341 15.9681 9.09952 16.0306 8.90945 16.3033C8.73105 16.5588 8.70721 16.8015 8.70721 16.8015L8.69895 16.8455ZM9.65859 16.9532C9.66851 16.9258 9.68895 16.8683 9.69381 16.8575L9.66013 16.8689C9.66013 16.8689 9.69398 16.854 9.69473 16.8538C9.6948 16.8537 9.69561 16.852 9.69566 16.8519L9.6966 16.8519L9.69659 16.851C9.67983 16.8751 9.69648 16.8546 9.70034 16.8519C9.74548 16.8385 10.7531 16.5417 11.5071 16.0813C12.1935 15.662 12.5777 15.3527 12.8068 15.0158C13.0357 14.6793 13.0102 14.2281 12.8899 13.9992C12.7295 13.6932 12.4675 13.6085 12.2493 13.5502C12.0311 13.4918 11.8099 13.4715 11.6007 13.4628C11.2016 13.4461 10.8753 13.4786 10.843 13.4817C10.825 13.4813 10.669 13.4776 10.459 13.5029C10.2474 13.5284 9.98443 13.5735 9.72095 13.7625C9.68885 13.5521 9.64077 13.4354 9.64305 13.0106C9.64602 12.4688 9.6683 12.3863 9.71656 12.1729C9.74289 12.0566 9.76502 12.0436 9.75357 12.0547C9.74211 12.0657 9.73439 12.0557 9.82752 12.0422C10.0137 12.0152 10.4917 12.0433 11.2167 12.0405C11.421 12.0397 11.7093 12.0583 12.011 12.0233C12.3124 11.9884 12.698 11.8926 12.9223 11.527C13.0501 11.3187 13.0928 10.9216 12.8829 10.5483C12.673 10.175 12.2716 9.7926 11.502 9.32283C10.7431 8.85879 9.74674 8.58342 9.64141 8.55361C9.64141 8.55361 9.63793 8.5483 9.63576 8.54521C9.63613 8.53673 9.63764 8.54751 9.63759 8.53396C9.63689 8.35631 9.61874 6.84061 9.61746 6.51631C9.61711 6.42709 9.62176 6.3879 9.62419 6.32145C9.72784 6.34789 9.84856 6.38352 10.0041 6.44922C10.3696 6.60364 10.8439 6.86926 11.3383 7.25424C11.7643 7.58601 12.0734 7.84384 12.3316 8.04092C12.5898 8.238 12.7934 8.39282 13.0873 8.45667C13.3811 8.52051 13.7118 8.39518 13.921 8.22482C14.1302 8.05445 14.3062 7.84395 14.5535 7.56286C15.4861 6.50401 15.769 6.32977 15.7954 6.31305L15.7963 6.31305C15.8245 6.29512 15.7961 6.30678 15.8103 6.29988C15.8292 6.35964 15.8505 6.43076 15.852 6.43741L15.8597 8.3783L15.8597 8.38111C15.8597 8.38111 15.8494 8.73813 15.6748 9.00382L15.6739 9.00477L15.6739 9.0057C15.4914 9.28678 15.1778 9.62685 14.9087 9.97636C14.7741 10.1511 14.648 10.329 14.5558 10.5351C14.4636 10.7412 14.3987 11.0022 14.4819 11.2764C14.6024 11.6731 14.9813 11.8921 15.2818 11.9617C15.4975 12.0117 15.6849 12.0034 15.873 12.0043C15.8738 12.018 15.874 12.0062 15.8741 12.0221L15.8765 12.6394C15.8803 13.6142 15.5867 14.6295 14.448 15.7278C12.9685 17.1558 10.1016 18.4359 9.66613 18.6281L9.65859 16.9532ZM9.62937 8.58738C9.63134 8.59608 9.63313 8.57117 9.63485 8.55083C9.63635 8.55357 9.63353 8.5506 9.6358 8.55457C9.62779 8.55501 9.62672 8.57569 9.62937 8.58738Z" fill="white"/>
</g>
<defs>
<clipPath id="clip0_65897_2">
<rect width="23.9802" height="23.9802" fill="white" transform="translate(0.0945129 24.0745) rotate(-90.2258)"/>
</clipPath>
</defs>
</svg>
