<svg width="65" height="65" viewBox="0 0 65 65" fill="none" xmlns="http://www.w3.org/2000/svg">
<path fill-rule="evenodd" clip-rule="evenodd" d="M16.2581 0C11.9483 0 7.8151 1.71205 4.76763 4.75952C1.72017 7.80698 0.00811768 11.9402 0.00811768 16.25V48.75C0.00811768 53.0598 1.72017 57.193 4.76763 60.2405C7.8151 63.288 11.9483 65 16.2581 65H48.7581C53.0679 65 57.2011 63.288 60.2486 60.2405C63.2961 57.193 65.0081 53.0598 65.0081 48.75V16.25C65.0081 11.9402 63.2961 7.80698 60.2486 4.75952C57.2011 1.71205 53.0679 0 48.7581 0L16.2581 0V0ZM20.5644 48.75H34.6816C42.0103 48.75 46.4141 45.0613 46.4141 39.0163C46.4141 34.5394 43.3225 31.2325 38.6791 30.7531V30.3469C42.0591 29.7781 44.6997 26.5687 44.6997 22.9694C44.6997 17.6881 40.82 14.3975 34.3728 14.3975H20.5644V48.75V48.75ZM25.8984 28.9453V18.9231H33.1297C37.0825 18.9231 39.3941 20.7797 39.3941 23.9484C39.3941 27.2066 36.9403 28.9453 32.2278 28.9453H25.8984V28.9453ZM25.8984 44.2284H33.6091C38.4191 44.2284 40.9622 42.2784 40.9622 38.6344C40.9622 35.0391 38.3216 33.1581 33.3003 33.1581H25.8984V44.2284V44.2284Z" fill="black"/>
</svg>
