<svg width="65" height="65" viewBox="0 0 65 65" fill="none" xmlns="http://www.w3.org/2000/svg">
<path d="M0 4.0625C0 2.98506 0.428012 1.95175 1.18988 1.18988C1.95175 0.428012 2.98506 0 4.0625 0L24.375 0C25.4524 0 26.4858 0.428012 27.2476 1.18988C28.0095 1.95175 28.4375 2.98506 28.4375 4.0625V60.9375C28.4375 62.0149 28.0095 63.0483 27.2476 63.8101C26.4858 64.572 25.4524 65 24.375 65H4.0625C2.98506 65 1.95175 64.572 1.18988 63.8101C0.428012 63.0483 0 62.0149 0 60.9375V4.0625ZM36.5625 4.0625C36.5625 2.98506 36.9905 1.95175 37.7524 1.18988C38.5142 0.428012 39.5476 0 40.625 0L60.9375 0C62.0149 0 63.0483 0.428012 63.8101 1.18988C64.572 1.95175 65 2.98506 65 4.0625V24.375C65 25.4524 64.572 26.4858 63.8101 27.2476C63.0483 28.0095 62.0149 28.4375 60.9375 28.4375H40.625C39.5476 28.4375 38.5142 28.0095 37.7524 27.2476C36.9905 26.4858 36.5625 25.4524 36.5625 24.375V4.0625ZM36.5625 40.625C36.5625 39.5476 36.9905 38.5142 37.7524 37.7524C38.5142 36.9905 39.5476 36.5625 40.625 36.5625H60.9375C62.0149 36.5625 63.0483 36.9905 63.8101 37.7524C64.572 38.5142 65 39.5476 65 40.625V60.9375C65 62.0149 64.572 63.0483 63.8101 63.8101C63.0483 64.572 62.0149 65 60.9375 65H40.625C39.5476 65 38.5142 64.572 37.7524 63.8101C36.9905 63.0483 36.5625 62.0149 36.5625 60.9375V40.625Z" fill="black"/>
</svg>
