<svg width="19" height="20" viewBox="0 0 19 20" fill="none" xmlns="http://www.w3.org/2000/svg">
<path d="M-4.37114e-07 10C-1.95608e-07 15.525 4.36167 20 9.74107 20C14.0457 20 17.6962 17.135 18.9832 13.1625C19.0749 12.6625 18.7734 12.4792 18.5148 12.4792C18.2835 12.4792 17.6706 12.4875 16.8585 12.4917C17.4459 15.2733 15.5517 15.86 15.5517 15.86C14.4274 16.315 14.1267 16.9725 14.1267 16.9725C13.5228 17.8783 13.5352 16.9025 13.5352 16.9025C13.603 15.8983 14.5389 15.3708 14.5389 15.3708C16.0283 14.4792 15.5979 13.03 15.3493 12.4583C14.719 12.3683 14.2903 12.1108 14.0466 11.825C13.8029 14.0458 12.9652 16.38 9.23304 16.38C8.16988 16.38 7.30085 15.9925 6.61933 15.3508C6.37316 15.4633 5.3827 15.8008 4.04116 15.2633C4.04116 15.2633 3.78012 14.4258 5.03988 12.5133C4.82345 11.7133 4.71606 10.8633 4.7111 10.0133C4.71606 9.16333 4.82345 8.31333 5.03988 7.51333C3.78012 5.61333 4.04116 4.77583 4.04116 4.77583C5.3827 4.23833 6.37316 4.57583 6.61933 4.67583C7.30085 4.03833 8.16988 3.65083 9.23304 3.65083C12.9752 3.65083 13.7987 5.98833 14.0383 8.21333C14.3307 7.86333 14.928 7.53833 15.8408 7.53833C17.1444 7.53833 18.1918 7.55083 18.5082 7.55083C18.7635 7.55083 19.0683 7.37583 18.9708 6.86333C17.692 2.8625 14.0391 -6.1367e-07 9.74107 -4.25796e-07C4.36167 -1.90655e-07 -6.7851e-07 4.4775 -4.37114e-07 10Z" fill="white"/>
</svg>
