<svg width="30" height="30" viewBox="0 0 30 30" fill="none" xmlns="http://www.w3.org/2000/svg">
<g clip-path="url(#clip0_65914_8)">
<path d="M15 0C6.72913 0 0 6.72913 0 15C0 23.2709 6.72913 30 15 30C23.2715 30 30 23.2709 30 15C30 6.72913 23.2715 0 15 0ZM21.5041 17.9576C22.963 19.2528 23.2663 19.7152 23.3159 19.7941C23.9204 20.7528 22.6454 20.8696 22.6454 20.8696H19.9585C19.9585 20.8696 19.3043 20.8767 18.7454 20.5063C17.8343 19.9096 16.8802 18.7526 16.2098 18.9535C15.647 19.1217 15.6522 19.8822 15.6522 20.5324C15.6522 20.7652 15.452 20.8696 15 20.8696C14.548 20.8696 14.3602 20.8696 14.16 20.8696C12.688 20.8696 11.0909 20.3739 9.49761 18.7089C7.2437 16.3552 5.26696 11.6139 5.26696 11.6139C5.26696 11.6139 5.15022 11.3752 5.27739 11.2298C5.42152 11.0667 5.81348 11.0876 5.81348 11.0876L8.41891 11.087C8.41891 11.087 8.66413 11.1333 8.84022 11.2572C8.98565 11.3589 9.06652 11.5533 9.06652 11.5533C9.06652 11.5533 9.50413 12.9985 10.0617 13.92C11.1509 15.7187 11.6576 15.7643 12.0274 15.5707C12.5674 15.2902 12.3913 13.378 12.3913 13.378C12.3913 13.378 12.4154 12.557 12.1337 12.1911C11.9165 11.908 11.5011 11.7574 11.3198 11.7339C11.173 11.715 11.4183 11.458 11.7307 11.3113C12.148 11.1254 12.7161 11.0778 13.6957 11.087C14.458 11.0941 14.6778 11.1398 14.9752 11.2083C15.8746 11.4157 15.6522 11.9628 15.6522 13.8841C15.6522 14.4998 15.5674 15.3652 16.0317 15.6522C16.232 15.7761 16.918 15.9274 18.1389 13.9448C18.7187 13.0043 19.1798 11.4443 19.1798 11.4443C19.1798 11.4443 19.275 11.2728 19.423 11.188C19.5743 11.1013 19.5698 11.1033 19.7772 11.1033C19.9846 11.1033 22.0643 11.087 22.5209 11.087C22.9767 11.087 23.4046 11.0817 23.4783 11.3491C23.5839 11.7333 23.1417 13.0493 22.0213 14.4776C20.1802 16.8215 19.9761 16.6024 21.5041 17.9576Z" fill="black"/>
</g>
<defs>
<clipPath id="clip0_65914_8">
<rect width="30" height="30" fill="white"/>
</clipPath>
</defs>
</svg>
