<svg width="20" height="20" viewBox="0 0 20 20" fill="none" xmlns="http://www.w3.org/2000/svg">
<g clip-path="url(#clip0_65914_8)">
<path d="M10 0C4.48609 0 0 4.48609 0 10C0 15.5139 4.48609 20 10 20C15.5143 20 20 15.5139 20 10C20 4.48609 15.5143 0 10 0ZM14.3361 11.9717C15.3087 12.8352 15.5109 13.1435 15.5439 13.1961C15.947 13.8352 15.097 13.913 15.097 13.913L13.3057 13.913C13.3057 13.913 12.8696 13.9178 12.497 13.6709C11.8896 13.273 11.2535 12.5017 10.8065 12.6357C10.4313 12.7478 10.4348 13.2548 10.4348 13.6883C10.4348 13.8435 10.3013 13.913 10 13.913C9.6987 13.913 9.57348 13.913 9.44 13.913C8.4587 13.913 7.39391 13.5826 6.33174 12.4726C4.82913 10.9035 3.5113 7.74261 3.5113 7.74261C3.5113 7.74261 3.43348 7.58348 3.51826 7.48652C3.61435 7.37783 3.87565 7.39174 3.87565 7.39174L5.61261 7.3913C5.61261 7.3913 5.77609 7.42217 5.89348 7.50478C5.99043 7.57261 6.04435 7.70217 6.04435 7.70217C6.04435 7.70217 6.33609 8.66565 6.70783 9.28C7.43391 10.4791 7.77174 10.5096 8.01826 10.3804C8.37826 10.1935 8.26087 8.9187 8.26087 8.9187C8.26087 8.9187 8.27696 8.3713 8.08913 8.12739C7.94435 7.9387 7.66739 7.83826 7.54652 7.82261C7.4487 7.81 7.61217 7.6387 7.82043 7.54087C8.0987 7.41696 8.47739 7.38522 9.13043 7.3913C9.6387 7.39609 9.78522 7.42652 9.98348 7.47217C10.583 7.61043 10.4348 7.97522 10.4348 9.25609C10.4348 9.66652 10.3783 10.2435 10.6878 10.4348C10.8213 10.5174 11.2787 10.6183 12.0926 9.29652C12.4791 8.66956 12.7865 7.62957 12.7865 7.62957C12.7865 7.62957 12.85 7.51522 12.9487 7.4587C13.0496 7.40087 13.0465 7.40217 13.1848 7.40217C13.323 7.40217 14.7096 7.3913 15.0139 7.3913C15.3178 7.3913 15.603 7.38783 15.6522 7.56609C15.7226 7.82217 15.4278 8.69956 14.6809 9.65174C13.4535 11.2143 13.3174 11.0683 14.3361 11.9717Z" fill="black"/>
</g>
<defs>
<clipPath id="clip0_65914_8">
<rect width="20" height="20" fill="white"/>
</clipPath>
</defs>
</svg>
